HIERARCHY
ROOT Hips
{
	OFFSET 0.00000 0.00000 0.00000
	CHANNELS 6 Xposition Yposition Zposition Zrotation Yrotation Xrotation 
	JOINT LHipJoint
	{
		OFFSET 0 0 0
		CHANNELS 3 Zrotation Yrotation Xrotation
		JOINT LeftHip
		{
			OFFSET 1.37590 -1.78394 0.89329
			CHANNELS 3 Zrotation Yrotation Xrotation
			JOINT LeftKnee
			{
				OFFSET 2.47928 -6.81178 0.00000
				CHANNELS 3 Zrotation Yrotation Xrotation
				JOINT LeftAnkle
				{
					OFFSET 2.63345 -7.23535 0.00000
					CHANNELS 3 Zrotation Yrotation Xrotation
					JOINT LeftToe
					{
						OFFSET 0.23938 -0.65768 2.27012
						CHANNELS 3 Zrotation Yrotation Xrotation
						End Site
						{
							OFFSET 0.00000 -0.00000 1.18363
						}
					}
				}
			}
		}
	}
	JOINT RHipJoint
	{
		OFFSET 0 0 0
		CHANNELS 3 Zrotation Yrotation Xrotation
		JOINT RightHip
		{
			OFFSET -1.33617 -1.78394 0.89329
			CHANNELS 3 Zrotation Yrotation Xrotation
			JOINT RightKnee
			{
				OFFSET -2.56922 -7.05888 0.00000
				CHANNELS 3 Zrotation Yrotation Xrotation
				JOINT RightAnkle
				{
					OFFSET -2.56568 -7.04915 0.00000
					CHANNELS 3 Zrotation Yrotation Xrotation
					JOINT RightToe
					{
						OFFSET -0.27533 -0.75646 2.18105
						CHANNELS 3 Zrotation Yrotation Xrotation
						End Site
						{
							OFFSET -0.00000 -0.00000 1.15233
						}
					}
				}
			}
		}
	}
	JOINT lowerback
	{
		OFFSET 0 0 0
		CHANNELS 3 Zrotation Yrotation Xrotation
		JOINT Chest
		{
			OFFSET 0.06190 2.15152 -0.00935
			CHANNELS 3 Zrotation Yrotation Xrotation
			JOINT Chest2
			{
				OFFSET 0.06334 2.15332 0.00872
				CHANNELS 3 Zrotation Yrotation Xrotation
				JOINT lowerneck
				{
					OFFSET 0 0 0
					CHANNELS 3 Zrotation Yrotation Xrotation
					JOINT Neck
					{
						OFFSET -0.04202 1.66908 0.23524
						CHANNELS 3 Zrotation Yrotation Xrotation
						JOINT Head
						{
							OFFSET 0.07510 1.69357 -0.24440
							CHANNELS 3 Zrotation Yrotation Xrotation
							End Site
							{
								OFFSET 0.02556 1.71719 -0.11000
							}
						}
					}
				}
				JOINT LeftCollar
				{
					OFFSET 0 0 0
					CHANNELS 3 Zrotation Yrotation Xrotation
					JOINT LeftShoulder
					{
						OFFSET 3.67168 1.26306 -0.41342
CHANNELS 3 Zrotation Xrotation Yrotation
						JOINT LeftElbow
						{
OFFSET 0 -4.685100 -0.000000
CHANNELS 3 Zrotation Xrotation Yrotation
							JOINT LeftWrist
							{
OFFSET 0 -3.396260 -0.000000
CHANNELS 3 Zrotation Xrotation Yrotation
								JOINT lhand
								{
									OFFSET 0 0 0
CHANNELS 3 Zrotation Xrotation Yrotation
									JOINT LFingers
									{
OFFSET 0 -0.486080 -0.000000
CHANNELS 3 Zrotation Xrotation Yrotation
										End Site
										{
OFFSET 0 -0.391890 -0.000000
										}
									}
								}
								JOINT LThumb
								{
OFFSET 0 0.000000 0.000000
CHANNELS 3 Zrotation Xrotation Yrotation
									End Site
									{
OFFSET 0 -0.397870 0.397870
									}
								}
							}
						}
					}
				}
				JOINT RightCollar
				{
					OFFSET 0 0 0
					CHANNELS 3 Zrotation Yrotation Xrotation
					JOINT RightShoulder
					{
						OFFSET -3.04136 1.42992 -0.76390
CHANNELS 3 Zrotation Xrotation Yrotation
						JOINT RightElbow
						{
OFFSET 0 -5.555760 -0.000000
CHANNELS 3 Zrotation Xrotation Yrotation
							JOINT RightWrist
							{
OFFSET 0 -3.327740 -0.000000
CHANNELS 3 Zrotation Xrotation Yrotation
								JOINT rhand
								{
									OFFSET 0 0 0
CHANNELS 3 Zrotation Xrotation Yrotation
									JOINT RFingers
									{
OFFSET 0 -0.507630 -0.000000
CHANNELS 3 Zrotation Xrotation Yrotation
										End Site
										{
OFFSET 0 -0.409260 -0.000000
										}
									}
								}
								JOINT RThumb
								{
OFFSET 0 0.000000 0.000000
CHANNELS 3 Zrotation Xrotation Yrotation
									End Site
									{
OFFSET 0 -0.415510 0.415510
									}
								}
							}
						}
					}
				}
			}
		}
	}
}
MOTION
Frames: 7
Frame Time: 0.008333333333333333
-5.477635 17.807990 5.159216 -97.906374 -82.779388 105.589451 0.000000 0.000000 0.000000 -3.350492 -17.717056 -26.193904 0.980251 6.302413 17.664498 0.034410 2.317137 -5.122461 0.414812 -4.133825 -11.453343 0.000000 0.000000 0.000000 32.901629 1.808708 -1.281209 -2.745682 -10.270892 29.859226 0.030662 5.356783 -2.690854 -0.215765 -2.990247 8.251685 2.506075 5.022754 -2.231365 0.912146 6.637000 -1.976412 -0.338017 3.287433 -0.609299 -6.248336 -3.347472 -16.633903 12.637420 -5.461257 14.230634 4.588025 -1.844751 7.668261 0.000000 0.000000 0.000000 8.989307 7.283422 1.762545 16.384450 -26.039138 3.813173 7.680465 27.808859 -19.901361 0.000000 0.000000 0.000000 -7.125000 0.000000 0.000000 -20.153255 48.954642 2.041211 0.000000 0.000000 0.000000 -2.849107 0.758768 -5.686695 -6.674288 -11.381910 -0.665930 -12.924853 48.700289 29.495664 0.000000 0.000000 0.000000 7.125000 0.000000 0.000000 20.483987 58.919168 -7.157109
-5.676075 17.803564 5.172718 -102.649838 -82.882512 110.216860 0.000000 0.000000 0.000000 -3.784838 -17.785403 -25.721163 0.993284 6.342878 17.782604 0.032595 2.270967 -5.000475 0.375551 -3.935398 -10.895058 0.000000 0.000000 0.000000 32.297669 1.850948 -1.731640 -3.038251 -10.754922 31.459620 0.052393 5.115123 -1.422488 -0.219561 -3.016477 8.324571 2.309545 4.871850 -2.229783 0.919541 6.438669 -1.934440 -0.226335 3.191168 -0.593716 -5.996538 -3.046037 -16.672292 12.439739 -5.089190 14.418058 4.526911 -1.665889 7.684984 0.000000 0.000000 0.000000 9.468461 6.908933 2.430070 16.311186 -25.940789 3.781037 7.880016 28.196539 -20.172747 0.000000 0.000000 0.000000 -7.125000 0.000000 0.000000 -20.090405 49.238940 2.179636 0.000000 0.000000 0.000000 -2.555947 1.982430 -10.286211 -6.323935 -10.801247 -0.598588 -12.444007 51.629094 29.025876 0.000000 0.000000 0.000000 7.125000 0.000000 0.000000 20.642756 58.374969 -6.943146
-5.874225 17.800699 5.185980 -107.433569 -82.951692 114.874269 0.000000 0.000000 0.000000 -4.267746 -17.810723 -25.226431 1.013559 6.405304 17.965009 0.032100 2.183106 -4.894615 0.336510 -3.726968 -10.309796 0.000000 0.000000 0.000000 31.672382 1.913655 -2.251566 -3.354802 -11.245837 33.116517 0.061275 4.754432 -0.141565 -0.224627 -3.050690 8.419841 2.109373 4.716890 -2.221370 0.925252 6.235347 -1.888632 -0.114708 3.092337 -0.576994 -5.745205 -2.745561 -16.701484 12.238798 -4.718009 14.605271 4.464501 -1.488058 7.701857 0.000000 0.000000 0.000000 9.931221 6.523001 3.137076 16.223839 -25.823276 3.742959 8.083654 28.615440 -20.441950 0.000000 0.000000 0.000000 -7.125000 0.000000 0.000000 -20.023547 49.522431 2.315926 0.000000 0.000000 0.000000 -2.340263 3.212894 -14.711199 -6.053718 -10.351663 -0.549010 -11.971647 54.376462 28.601678 0.000000 0.000000 0.000000 7.125000 0.000000 0.000000 20.828730 57.877375 -6.757138
-6.071860 17.799360 5.199037 -112.222185 -82.987338 119.527311 0.000000 0.000000 0.000000 -4.795940 -17.792386 -24.709718 1.040036 6.485883 18.200851 0.032891 2.055154 -4.809032 0.298280 -3.510348 -9.703178 0.000000 0.000000 0.000000 31.027852 1.997686 -2.840581 -3.695028 -11.740058 34.822511 0.056903 4.281489 1.131214 -0.230353 -3.089115 8.526890 1.906496 4.557969 -2.204233 0.928591 6.027188 -1.840024 -0.004292 2.991120 -0.561077 -5.494772 -2.446081 -16.723264 12.034906 -4.347569 14.793055 4.400856 -1.311207 7.719485 0.000000 0.000000 0.000000 10.378022 6.128948 3.869060 16.125730 -25.690820 3.700291 8.293608 29.057377 -20.704792 0.000000 0.000000 0.000000 -7.125000 0.000000 0.000000 -19.948723 49.801462 2.447788 0.000000 0.000000 0.000000 -2.196371 4.451025 -18.800961 -5.856838 -10.023043 -0.514111 -11.502096 56.791460 28.229289 0.000000 0.000000 0.000000 7.125000 0.000000 0.000000 21.050193 57.430989 -6.603869
-6.268849 17.799506 5.211884 -116.978681 -82.990350 124.140731 0.000000 0.000000 0.000000 -5.366069 -17.731063 -24.171099 1.071673 6.580669 18.478938 0.034837 1.890956 -4.745565 0.261551 -3.288627 -9.083538 0.000000 0.000000 0.000000 30.366067 2.102635 -3.497999 -4.057836 -12.233676 36.568425 0.039854 3.708249 2.376331 -0.235764 -3.125018 8.627080 1.701204 4.395493 -2.177824 0.929230 5.814604 -1.789705 0.104219 2.887534 -0.547156 -5.244399 -2.147997 -16.737122 11.827307 -3.978388 14.981333 4.335620 -1.135721 7.737773 0.000000 0.000000 0.000000 10.808422 5.727318 4.615277 16.018664 -25.545882 3.653992 8.506756 29.519222 -20.963031 0.000000 0.000000 0.000000 -7.125000 0.000000 0.000000 -19.869221 50.077088 2.576052 0.000000 0.000000 0.000000 -2.118270 5.695501 -22.426951 -5.723976 -9.800929 -0.491168 -11.034150 58.754196 27.911040 0.000000 0.000000 0.000000 7.125000 0.000000 0.000000 21.307626 57.037423 -6.484377
-6.464953 17.801157 5.224425 -121.668078 -82.961559 128.681052 0.000000 0.000000 0.000000 -5.973550 -17.629105 -23.610384 1.107321 6.685686 18.787552 0.037808 1.695601 -4.706362 0.226677 -3.062870 -8.453961 0.000000 0.000000 0.000000 29.689180 2.227792 -4.222891 -4.441588 -12.722641 38.344112 0.011628 3.049085 3.576356 -0.240879 -3.158297 8.719765 1.493711 4.229860 -2.142997 0.927688 5.598033 -1.737446 0.211539 2.781916 -0.534505 -4.995268 -1.851778 -16.743828 11.615632 -3.610604 15.169132 4.268839 -0.961565 7.756531 0.000000 0.000000 0.000000 11.219981 5.316949 5.366583 15.904572 -25.391027 3.604923 8.721951 29.998522 -21.216834 0.000000 0.000000 0.000000 -7.125000 0.000000 0.000000 -19.786373 50.349430 2.700917 0.000000 0.000000 0.000000 -2.101534 6.940062 -25.508236 -5.644577 -9.667974 -0.477752 -10.566690 60.190802 27.650559 0.000000 0.000000 0.000000 7.125000 0.000000 0.000000 21.603320 56.699433 -6.401063
-6.659977 17.804249 5.236662 -126.242262 -82.903307 133.099506 0.000000 0.000000 0.000000 -6.613117 -17.490285 -23.026791 1.145809 6.796901 19.115118 0.041544 1.474553 -4.692331 0.193984 -2.834639 -7.818873 0.000000 0.000000 0.000000 29.000312 2.370427 -5.013238 -4.843943 -13.202920 40.138124 -0.025630 2.319537 4.713861 -0.245439 -3.188103 8.802922 1.284538 4.060486 -2.098648 0.924617 5.376695 -1.683767 0.317930 2.673812 -0.524426 -4.747636 -1.557621 -16.743903 11.399425 -3.244149 15.356319 4.200447 -0.788805 7.775954 0.000000 0.000000 0.000000 11.611464 4.897062 6.115236 15.784495 -25.227556 3.553604 8.940947 30.493323 -21.462304 0.000000 0.000000 0.000000 -7.125000 0.000000 0.000000 -19.696609 50.615240 2.820045 0.000000 0.000000 0.000000 -2.141089 8.178469 -28.009774 -5.608760 -9.608056 -0.471782 -10.100496 61.072346 27.445834 0.000000 0.000000 0.000000 7.125000 0.000000 0.000000 21.933769 56.414944 -6.352240
